<svg width="18" height="18" viewBox="0 0 18 18" fill="none" xmlns="http://www.w3.org/2000/svg">
<path d="M9.00004 7.50008C10.243 7.50008 11.2501 6.49301 11.2501 5.25004C11.2501 4.00707 10.243 3 9.00004 3C7.75707 3 6.75 4.00707 6.75 5.25004C6.75 6.49301 7.75707 7.50008 9.00004 7.50008ZM9.00004 4.50004C9.41458 4.50004 9.75004 4.83551 9.75004 5.25004C9.75004 5.66458 9.41458 6.00004 9.00004 6.00004C8.58551 6.00004 8.25004 5.66458 8.25004 5.25004C8.25004 4.83551 8.58551 4.50004 9.00004 4.50004Z" fill="#FF2A35"/>
<path d="M8.02376 13.9753L8.32896 14.5857C8.6054 15.1386 9.39439 15.1385 9.67069 14.5856L10.3172 13.2918C10.9664 11.9944 11.5807 10.9707 12.9808 8.76994L13.0172 8.71267C13.2229 8.38926 13.3224 8.23274 13.4406 8.04606C13.9664 7.21555 14.2499 6.25334 14.2499 5.25014C14.2499 2.12005 11.5305 -0.322969 8.3862 0.034858C6.04657 0.301734 4.1256 2.17363 3.80181 4.50418C3.60806 5.89931 3.96367 7.26027 4.76953 8.35446C5.85356 9.82387 6.68829 11.3054 8.02376 13.9753ZM5.28761 4.71055C5.51711 3.05856 6.89639 1.71455 8.55604 1.52523C10.808 1.26894 12.7499 3.01342 12.7499 5.25014C12.7499 5.96699 12.5482 6.65132 12.1732 7.24374C12.0558 7.42923 11.9568 7.58505 11.7516 7.90751L11.7152 7.96478C10.3037 10.1835 9.66963 11.2387 8.99828 12.5757C7.83121 10.2777 7.01996 8.87826 5.97707 7.46446C5.4013 6.68268 5.14821 5.71414 5.28761 4.71055Z" fill="#FF2A35"/>
<path d="M13.6718 11.0054C13.2688 10.9098 12.8646 11.1591 12.769 11.5621C12.6734 11.9651 12.9227 12.3694 13.3257 12.4649C15.3371 12.9419 16.5003 13.7051 16.5003 14.25C16.5003 15.2863 13.1622 16.5 9.00017 16.5C4.83766 16.5 1.50004 15.2865 1.50004 14.25C1.50004 13.7047 2.66208 12.9418 4.67246 12.4649C5.0755 12.3693 5.32472 11.9651 5.22913 11.5621C5.13354 11.159 4.72931 10.9098 4.32627 11.0054C1.69474 11.6296 0 12.7423 0 14.25C0 16.5283 4.04775 18.0001 9.00017 18.0001C13.9521 18.0001 18.0003 16.5282 18.0003 14.25C18.0003 12.7423 16.3045 11.6297 13.6718 11.0054Z" fill="#FF2A35"/>
</svg>
