<svg width="16" height="12" viewBox="0 0 16 12" fill="none" xmlns="http://www.w3.org/2000/svg">
<path fill-rule="evenodd" clip-rule="evenodd" d="M13.8182 0C15.0232 0 16 1.00736 16 2.25V9.75C16 10.9927 15.0232 12 13.8182 12H2.18182C0.976836 12 0 10.9927 0 9.75V2.25C0 1.00736 0.976836 0 2.18182 0H13.8182ZM13.2748 1.5H2.72522L7.54938 5.42753C7.8136 5.6427 8.1864 5.6427 8.45069 5.42753L13.2748 1.5ZM1.45455 2.3766V9.75C1.45455 10.1642 1.78016 10.5 2.18182 10.5H13.8182C14.2199 10.5 14.5455 10.1642 14.5455 9.75V2.37661L9.35193 6.60488C8.55927 7.25025 7.44073 7.25025 6.64807 6.60488L1.45455 2.3766Z" fill="#FF2A35"/>
</svg>
