<svg width="18" height="18" viewBox="0 0 18 18" fill="none" xmlns="http://www.w3.org/2000/svg">
<path d="M5.40802 5.65054L5.82605 5.2301L6.80786 6.20637L6.38983 6.62671L5.40802 5.65054ZM6.00115 3.81827L5.04251 2.05485L6.25885 1.39361L7.21749 3.15702L6.00115 3.81827ZM3.13723 1.71537L1.83348 3.0266L0.851673 2.05042L2.15542 0.739195L3.13723 1.71537ZM1.41369 3.82556C1.289 5.16383 1.40013 8.62623 5.12761 12.375L4.14581 13.3512C0.0781908 9.26034 -0.120443 5.3668 0.0351767 3.69708L1.41369 3.82556ZM5.12761 12.375C8.68065 15.9483 11.669 16.5402 12.9655 16.6139L12.8869 17.9962C11.2552 17.9034 7.94344 17.1705 4.14581 13.3512L5.12761 12.375ZM10.8321 11.1055L11.0953 10.8408L12.0771 11.817L11.8139 12.0817L10.8321 11.1055ZM14.4507 10.6301L16.0054 11.794L15.1756 12.9023L13.6209 11.7384L14.4507 10.6301ZM16.3438 15.7085L14.9032 17.1572L13.9214 16.181L15.362 14.7322L16.3438 15.7085ZM11.323 11.5936C11.8139 12.0817 11.8132 12.0824 11.8126 12.083C11.8123 12.0833 11.8117 12.0839 11.8112 12.0844C11.8103 12.0853 11.8094 12.0862 11.8084 12.0871C11.8065 12.089 11.8045 12.091 11.8025 12.0929C11.7983 12.0969 11.7938 12.1012 11.789 12.1056C11.7793 12.1145 11.7683 12.1243 11.7558 12.1348C11.7308 12.1557 11.7001 12.1794 11.6633 12.2043C11.5895 12.2543 11.492 12.3087 11.3694 12.3549C11.1193 12.4492 10.7895 12.4997 10.3811 12.4364C9.5824 12.3125 8.52743 11.7624 7.12648 10.3535L8.10829 9.37728C9.41934 10.6958 10.2172 11.0099 10.5933 11.0682C10.7723 11.096 10.8604 11.0672 10.8813 11.0593C10.8942 11.0545 10.8955 11.0522 10.8867 11.0581C10.8824 11.061 10.8756 11.0659 10.8665 11.0736C10.862 11.0774 10.8568 11.0819 10.8511 11.0872C10.8482 11.0898 10.8452 11.0926 10.842 11.0957C10.8405 11.0972 10.8388 11.0988 10.8372 11.1005C10.8363 11.1013 10.8355 11.1021 10.8347 11.1029C10.8342 11.1033 10.8336 11.104 10.8334 11.1042C10.8327 11.1049 10.8321 11.1055 11.323 11.5936ZM7.12648 10.3535C5.72508 8.94402 5.17967 7.88413 5.05691 7.08416C4.99424 6.67535 5.04426 6.34575 5.1374 6.0957C5.18309 5.97313 5.2369 5.87547 5.28637 5.80163C5.31111 5.76471 5.33464 5.73388 5.35541 5.70887C5.36575 5.69632 5.37544 5.68524 5.3843 5.67555C5.38873 5.67066 5.39289 5.66613 5.39685 5.66198C5.39889 5.65986 5.40082 5.65792 5.40267 5.65598C5.40359 5.65506 5.40452 5.65413 5.40544 5.65321C5.4059 5.65275 5.40655 5.65201 5.40673 5.65183C5.40738 5.65118 5.40802 5.65054 5.89897 6.13862C6.38983 6.62671 6.39048 6.62606 6.39112 6.62542C6.39131 6.62523 6.39195 6.62459 6.39241 6.62413C6.39324 6.6233 6.39408 6.62247 6.39491 6.62163C6.39647 6.61988 6.39804 6.61831 6.39961 6.61674C6.40266 6.61351 6.40543 6.61047 6.40811 6.60761C6.41327 6.60188 6.4178 6.59671 6.42149 6.5921C6.42906 6.58305 6.43386 6.57632 6.43672 6.57216C6.44244 6.56358 6.43986 6.56533 6.43478 6.57899C6.42638 6.60161 6.39749 6.69215 6.42546 6.87417C6.48388 7.25565 6.79771 8.05913 8.10829 9.37728L7.12648 10.3535ZM16.0054 11.794C17.2621 12.7348 17.461 14.5849 16.3438 15.7085L15.362 14.7322C15.8499 14.2415 15.8003 13.3699 15.1756 12.9023L16.0054 11.794ZM12.9655 16.6139C13.285 16.632 13.6187 16.4855 13.9214 16.181L14.9032 17.1572C14.4101 17.6532 13.712 18.0431 12.8869 17.9962L12.9655 16.6139ZM1.83348 3.0266C1.58122 3.28024 1.43917 3.55216 1.41369 3.82556L0.0351767 3.69708C0.0984028 3.01903 0.440934 2.46347 0.851673 2.05042L1.83348 3.0266ZM11.0953 10.8408C11.9989 9.9321 13.4281 9.86454 14.4507 10.6301L13.6209 11.7384C13.1234 11.366 12.4705 11.4214 12.0771 11.817L11.0953 10.8408ZM5.04251 2.05485C4.63214 1.30002 3.66722 1.18242 3.13723 1.71537L2.15542 0.739195C3.38552 -0.497916 5.43802 -0.116436 6.25885 1.39361L5.04251 2.05485ZM5.82605 5.2301C6.17846 4.87567 6.26578 4.30516 6.00115 3.81827L7.21749 3.15702C7.76124 4.1572 7.61106 5.39846 6.80786 6.20637L5.82605 5.2301Z" fill="#FF2A35"/>
</svg>
